<?xml version="1.0" standalone="no"?>
<!DOCTYPE svg PUBLIC "-//W3C//DTD SVG 1.1//EN"
"http://www.w3.org/Graphics/SVG/1.1/DTD/svg11.dtd">

<svg width="186" height="211" view_box="0 0 186 211"
xmlns="http://www.w3.org/2000/svg"
xmlns:link="http://www.w3.org/1999/xlink">\n\n<desc>Généré par Mocodo 2.3.7 le Thu, 07 Jan 2021 08:01:55</desc>

<rect id="frame" x="0" y="0" width="186" height="211" fill="#f7f7f7" stroke="none" stroke-width="0"/>

<!-- Association HAS -->
<line x1="41" y1="68" x2="41" y2="177" stroke="#de77ae" stroke-width="2"/>
<text x="46.0" y="136" fill="#4d9221" font-family="Verdana" font-size="12">1,1</text>
<line x1="138" y1="177" x2="41" y2="177" stroke="#de77ae" stroke-width="2"/>
<text x="72" y="194.0" fill="#4d9221" font-family="Verdana" font-size="12">0,N</text>
<g id="association-HAS">
	<path d="M 47 152 a 14 14 90 0 1 14 14 V 177 h -40 V 166 a 14 14 90 0 1 14 -14" fill="#f1b6da" stroke="#f1b6da" stroke-width="0"/>
	<path d="M 61 177.0 v 11 a 14 14 90 0 1 -14 14 H 35 a 14 14 90 0 1 -14 -14 V 177.0 H 40" fill="#fde0ef" stroke="#fde0ef" stroke-width="0"/>
	<rect x="21" y="152" width="40" height="50" fill="none" rx="14" stroke="#de77ae" stroke-width="2"/>
	<line x1="21" y1="177" x2="61" y2="177" stroke="#de77ae" stroke-width="1"/>
	<text x="28" y="169.7" fill="#000000" font-family="Verdana" font-size="12">HAS</text>
</g>

<!-- Entity PROJECT -->
<g id="entity-PROJECT">
	<g id="frame-PROJECT">
		<rect x="105" y="9" width="66" height="25" fill="#b8e186" stroke="#b8e186" stroke-width="0"/>
		<rect x="105" y="34.0" width="66" height="93" fill="#e6f5d0" stroke="#e6f5d0" stroke-width="0"/>
		<rect x="105" y="9" width="66" height="118" fill="none" stroke="#7fbc41" stroke-width="2"/>
		<line x1="105" y1="34" x2="171" y2="34" stroke="#7fbc41" stroke-width="1"/>
	</g>
	<text x="110" y="26.7" fill="#000000" font-family="Verdana" font-size="12">PROJECT</text>
	<text x="110" y="51.7" fill="#000000" font-family="Verdana" font-size="12">title</text>
	<line x1="110" y1="54" x2="134" y2="54" stroke="#000000" stroke-width="1"/>
	<text x="110" y="68.8" fill="#000000" font-family="Verdana" font-size="12">exceprt</text>
	<text x="110" y="85.8" fill="#000000" font-family="Verdana" font-size="12">content</text>
	<text x="110" y="102.8" fill="#000000" font-family="Verdana" font-size="12">image</text>
	<text x="110" y="119.8" fill="#000000" font-family="Verdana" font-size="12">url</text>
</g>

<!-- Entity ARTICLE -->
<g id="entity-ARTICLE">
	<g id="frame-ARTICLE">
		<rect x="9" y="17" width="64" height="25" fill="#b8e186" stroke="#b8e186" stroke-width="0"/>
		<rect x="9" y="42.0" width="64" height="77" fill="#e6f5d0" stroke="#e6f5d0" stroke-width="0"/>
		<rect x="9" y="17" width="64" height="102" fill="none" stroke="#7fbc41" stroke-width="2"/>
		<line x1="9" y1="42" x2="73" y2="42" stroke="#7fbc41" stroke-width="1"/>
	</g>
	<text x="14" y="34.7" fill="#000000" font-family="Verdana" font-size="12">ARTICLE</text>
	<text x="14" y="59.7" fill="#000000" font-family="Verdana" font-size="12">title</text>
	<line x1="14" y1="62" x2="38" y2="62" stroke="#000000" stroke-width="1"/>
	<text x="14" y="76.8" fill="#000000" font-family="Verdana" font-size="12">date</text>
	<text x="14" y="93.8" fill="#000000" font-family="Verdana" font-size="12">exceprt</text>
	<text x="14" y="110.8" fill="#000000" font-family="Verdana" font-size="12">content</text>
</g>

<!-- Entity CATEGORY -->
<g id="entity-CATEGORY">
	<g id="frame-CATEGORY">
		<rect x="99" y="152" width="78" height="25" fill="#b8e186" stroke="#b8e186" stroke-width="0"/>
		<rect x="99" y="177.0" width="78" height="25" fill="#e6f5d0" stroke="#e6f5d0" stroke-width="0"/>
		<rect x="99" y="152" width="78" height="50" fill="none" stroke="#7fbc41" stroke-width="2"/>
		<line x1="99" y1="177" x2="177" y2="177" stroke="#7fbc41" stroke-width="1"/>
	</g>
	<text x="104" y="169.7" fill="#000000" font-family="Verdana" font-size="12">CATEGORY</text>
	<text x="104" y="194.8" fill="#000000" font-family="Verdana" font-size="12">name</text>
	<line x1="104" y1="197" x2="139" y2="197" stroke="#000000" stroke-width="1"/>
</g>
</svg>